<?xml version="1.0" encoding="UTF-8" standalone="no" ?>
<!DOCTYPE svg PUBLIC "-//W3C//DTD SVG 1.1//EN" "http://www.w3.org/Graphics/SVG/1.1/DTD/svg11.dtd">
<svg xmlns="http://www.w3.org/2000/svg" xmlns:xlink="http://www.w3.org/1999/xlink" version="1.1" width="640" height="640" viewBox="0 0 640 640" xml:space="preserve">
<desc>Created with Fabric.js 4.6.0</desc>
<defs>
</defs>
<g transform="matrix(3.91 0 0 3.91 350.91 268.16)" id="q8mLg6-boDlwBnzxa0hGw"  >
<radialGradient id="SVGID_73" gradientUnits="userSpaceOnUse" gradientTransform="matrix(1 0 0 1 0 0)"  cx="40" cy="40" r="40" fx="40" fy="40">
<stop offset="0%" style="stop-color:#009BED;stop-opacity: 1"/>
<stop offset="50%" style="stop-color:#7e7e7e;stop-opacity: 1"/>
<stop offset="100%" style="stop-color:#000000;stop-opacity: 1"/>
</radialGradient>
<path style="stroke: none; stroke-width: 1; stroke-dasharray: none; stroke-linecap: butt; stroke-dashoffset: 0; stroke-linejoin: miter; stroke-miterlimit: 4; fill: url(#SVGID_73); fill-rule: nonzero; opacity: 1;" vector-effect="non-scaling-stroke"  transform=" translate(-40, -40)" d="M 40 19.294 L 50.718 0 L 50.353 22.068 L 69.282 10.718000000000002 L 57.931999999999995 29.647 L 80 29.282 L 60.706 40 L 80 50.718 L 57.932 50.353 L 69.282 69.282 L 50.352999999999994 57.931999999999995 L 50.718 80 L 40 60.706 L 29.282 80 L 29.647 57.932 L 10.718 69.282 L 22.067999999999998 50.352999999999994 L 0 50.718 L 19.294 40 L 0 29.282 L 22.068 29.647 L 10.718000000000002 10.718 L 29.647 22.067999999999998 L 29.282 0 L 40 19.294 z" stroke-linecap="round" />
</g>
<g transform="matrix(1 0 0 1 350.91 277.71)" style="" id="AFKKflsqMwPJ9b1V8lQLY"  >
		<text xml:space="preserve" font-family="Open Sans" font-size="25" font-style="italic" font-weight="600" letter-spacing="0.05" line-height="1" style="stroke: none; stroke-width: 1; stroke-dasharray: none; stroke-linecap: butt; stroke-dashoffset: 0; stroke-linejoin: miter; stroke-miterlimit: 4; fill: rgb(0,0,0); fill-rule: nonzero; opacity: 1; white-space: pre;" ><tspan x="-78.5" y="-1.52" >C</tspan><tspan x="-63.46" y="-1.52" >y</tspan><tspan x="-51.16" y="-1.52" >b</tspan><tspan x="-36.45" y="-1.52" >e</tspan><tspan x="-23.21" y="-1.52" >r</tspan><tspan x="-12.97" y="-1.52" >S</tspan><tspan x="0.01" y="-1.52" >e</tspan><tspan x="13.25" y="-1.52" >c</tspan><tspan x="25" y="-1.52" >u</tspan><tspan x="39.8" y="-1.52" >r</tspan><tspan x="50.05" y="-1.52" >i</tspan><tspan x="56.96" y="-1.52" >t</tspan><tspan x="66.26" y="-1.52" >y</tspan></text>
</g>
<g transform="matrix(0.82 0 0 0.82 350.91 227.96)" id="R575b3gonjyuRtfkNDRrQ"  >
<g style="" vector-effect="non-scaling-stroke"   >
		<g transform="matrix(1 0 0 1 -5.65 -5.8)" id="U3B8tHO16P6KG6nA14C-9"  >
<path style="stroke: none; stroke-width: 1; stroke-dasharray: none; stroke-linecap: butt; stroke-dashoffset: 0; stroke-linejoin: miter; stroke-miterlimit: 4; fill: rgb(179,181,179); fill-rule: nonzero; opacity: 1;" vector-effect="non-scaling-stroke"  transform=" translate(-34.35, -34.2)" d="M 52.1 32.9 L 35.5 32.9 L 35.5 17.5 L 49.1 17.5 C 50.9 22.1 52 27.4 52.1 32.9 z M 41.1 40.9 C 43.6 38.199999999999996 46.7 36.4 50.1 35.5 L 35.6 35.5 L 35.6 50.4 C 36.5 46.9 38.3 43.6 41.1 40.9 z M 20.8 9.3 C 21.6 8.100000000000001 22.3 6.9 23.2 5.9 C 24 4.8 24.9 3.8 25.8 3 C 26.900000000000002 1.9 28.1 1 29.2 0.2999999999999998 C 19.5 1.7999999999999998 11.099999999999998 7.3 5.800000000000001 15.100000000000001 L 17.8 15.100000000000001 C 18.7 13.1 19.6 11.1 20.8 9.3 z M 41 4.5 C 39.8 3.4 38.7 2.6 37.5 2 C 36.8 1.7 36.2 1.4 35.6 1.3 L 35.6 15.100000000000001 L 48.2 15.100000000000001 C 46.1 10.6 43.6 6.9 41 4.5 z M 54.6 32.9 L 68.6 32.9 C 68.39999999999999 27.299999999999997 66.89999999999999 22.099999999999998 64.3 17.5 L 51.7 17.5 C 53.4 22.2 54.5 27.5 54.6 32.9 z M 66.6 37.6 C 67.69999999999999 38.300000000000004 67.8 38.4 68.39999999999999 38.800000000000004 C 68.49999999999999 37.7 68.6 36.7 68.69999999999999 35.6 L 61.89999999999999 35.5 C 62.9 35.8 65.5 36.9 66.6 37.6 z M 45.4 5.8 C 47.4 8.4 49.199999999999996 11.5 50.699999999999996 15 L 62.8 15 C 57.6 7.3 49.2 1.7 39.4 0.2 C 40.6 0.8999999999999999 41.699999999999996 1.8 42.8 2.9000000000000004 C 43.7 3.8 44.6 4.8 45.4 5.8 z M 16.9 17.6 L 4.3 17.6 C 1.7 22.1 0.2 27.4 0 33 L 14 33 C 14.1 27.7 15.1 22.4 16.9 17.6 z M 19.5 50.9 L 33.1 50.9 L 33.1 35.5 L 16.5 35.5 C 16.6 40.8 17.7 46 19.5 50.9 z M 27.8 4.4 C 26.1 6 24.400000000000002 8.100000000000001 22.9 10.5 C 22 11.9 21.2 13.4 20.5 15 L 33.1 15 L 33.1 1.2 C 32.5 1.3 31.900000000000002 1.6 31.200000000000003 1.9 C 30.1 2.5 28.9 3.4 27.8 4.4 z M 35.5 61.2 L 35.5 67.2 C 36.1 67.10000000000001 36.9 66.9 37.6 66.4 C 37.2 65.8 36.3 64 35.5 61.2 z M 16.5 33 L 33.1 33 L 33.1 17.6 L 19.5 17.6 C 17.7 22.4 16.6 27.6 16.5 33 z M 23.2 62.6 C 22.4 61.6 21.599999999999998 60.4 20.8 59.2 C 19.7 57.400000000000006 18.7 55.400000000000006 17.8 53.400000000000006 L 5.800000000000001 53.400000000000006 C 11.100000000000001 61.2 19.5 66.80000000000001 29.2 68.2 C 28 67.5 26.9 66.60000000000001 25.8 65.5 C 24.9 64.6 24 63.6 23.2 62.6 z M 22.8 57.8 C 24.3 60.199999999999996 26 62.3 27.700000000000003 63.9 C 28.900000000000002 65 30.1 65.8 31.200000000000003 66.4 C 31.900000000000002 66.7 32.5 67 33.1 67.10000000000001 L 33.1 53.3 L 20.5 53.3 C 21.2 54.9 22 56.4 22.8 57.8 z M 14 35.4 L 0 35.4 C 0.2 41 1.7 46.3 4.3 50.9 L 16.9 50.9 C 15.1 46 14.1 40.7 14 35.4 z" stroke-linecap="round" />
</g>
		<g transform="matrix(1 0 0 1 19.35 19.1)" id="2ww-5nbGhuEpQbKykcMVI"  >
<path style="stroke: none; stroke-width: 1; stroke-dasharray: none; stroke-linecap: butt; stroke-dashoffset: 0; stroke-linejoin: miter; stroke-miterlimit: 4; fill: rgb(179,181,179); fill-rule: nonzero; opacity: 1;" vector-effect="non-scaling-stroke"  transform=" translate(-59.35, -59.1)" d="M 68.3 43.5 C 61.5 36.7 50.599999999999994 36.7 43.8 43.5 C 37 50.3 37 61.2 43.8 68 C 49.9 74.2 59.4 74.7 66.19999999999999 69.8 L 76.19999999999999 79.8 L 80 76 L 70 66 C 75 59.2 74.4 49.7 68.3 43.5 z" stroke-linecap="round" />
</g>
		<g transform="matrix(1 0 0 1 16 15.8)" id="sDSSMDK7uCAMc-Qp2uHre"  >
<path style="stroke: none; stroke-width: 1; stroke-dasharray: none; stroke-linecap: butt; stroke-dashoffset: 0; stroke-linejoin: miter; stroke-miterlimit: 4; fill: rgb(255,255,255); fill-rule: nonzero; opacity: 1;" vector-effect="non-scaling-stroke"  transform=" translate(-56, -55.8)" d="M 65.1 46.7 C 70.1 51.7 70.1 59.900000000000006 65.1 64.9 C 60.099999999999994 69.9 51.89999999999999 69.9 46.89999999999999 64.9 C 41.89999999999999 59.900000000000006 41.89999999999999 51.7 46.89999999999999 46.7 C 51.89999999999999 41.7 60.1 41.7 65.1 46.7 z" stroke-linecap="round" />
</g>
</g>
</g>
</svg>